<?xml version="1.0" encoding="utf-8"?>
<!-- Generator: Adobe Illustrator 22.0.0, SVG Export Plug-In . SVG Version: 6.00 Build 0)  -->
<svg version="1.1" id="Layer_1" xmlns="http://www.w3.org/2000/svg" xmlns:xlink="http://www.w3.org/1999/xlink" x="0px" y="0px"
	 viewBox="0 0 391 188.7" style="enable-background:new 0 0 391 188.7;" xml:space="preserve">
<g>
	<path d="M56.8,12.4c0.3,0.2,0.5,0.4,0.6,0.7c0.2,0.2,0.2,0.5,0.2,0.8c0,0.3-0.1,0.6-0.3,0.9l-1.9,3.1c-0.4,0.6-0.8,0.9-1.2,0.9
		c-0.2,0-0.3,0-0.5-0.1c-0.2-0.1-0.4-0.2-0.7-0.4c-1.7-1.2-3.5-2.1-5.4-2.8c-1.9-0.6-3.9-1-5.9-1.1c-3,0-5.9,0.5-8.4,1.6
		c-2.6,1.1-4.8,2.6-6.7,4.4c-1.9,1.9-3.4,4-4.4,6.5c-1.1,2.4-1.6,5-1.6,7.7c0,2.9,0.5,5.5,1.6,8s2.5,4.6,4.4,6.3
		c1.8,1.8,4,3.2,6.4,4.1c2.4,1,5,1.5,7.6,1.5c1,0,1.9-0.1,2.9-0.2c1-0.1,2-0.4,3-0.7c1-0.3,2-0.8,3.1-1.3c1.1-0.5,2.2-1.2,3.5-2
		c0.4-0.3,0.8-0.4,1.1-0.4c0.4,0,0.8,0.3,1.2,0.9l2,3.3c0.2,0.3,0.2,0.6,0.2,0.9c0,0.6-0.3,1-0.9,1.3c-2.2,1.6-4.7,2.9-7.3,3.8
		c-2.7,0.9-5.6,1.4-8.6,1.4c-2.5,0-4.9-0.3-7.2-1s-4.5-1.5-6.5-2.7c-2-1.2-3.8-2.6-5.5-4.2c-1.6-1.6-3-3.5-4.2-5.5
		c-1.2-2-2.1-4.1-2.7-6.5c-0.6-2.3-1-4.7-1-7.2c0-2.5,0.3-4.9,1-7.2c0.6-2.3,1.5-4.5,2.7-6.5c1.2-2,2.6-3.8,4.2-5.5
		c1.6-1.7,3.5-3.1,5.5-4.2c2-1.2,4.2-2.1,6.5-2.7c2.3-0.6,4.7-1,7.2-1c3,0,5.8,0.4,8.4,1.3C51.9,9.5,54.4,10.7,56.8,12.4z"/>
	<path d="M98,53.7c0.4,0,0.8,0.1,1.1,0.4c0.3,0.3,0.5,0.7,0.5,1.2v3.7c0,0.4-0.1,0.8-0.4,1.1c-0.3,0.3-0.7,0.5-1.1,0.5H67.9
		c-1,0-1.6-0.5-1.6-1.6V9.5c0-0.4,0.1-0.8,0.4-1.1C67,8.1,67.4,8,68,8h3.7c0.4,0,0.8,0.1,1.1,0.4C73,8.6,73.2,9,73.2,9.5v44.2H98z"
		/>
	<path d="M113.2,38.9c0,2.2,0.3,4.3,1,6.3c0.6,1.9,1.6,3.6,2.9,5.1s2.8,2.6,4.6,3.4c1.8,0.8,3.9,1.2,6.2,1.2c2.5,0,4.7-0.4,6.6-1.2
		s3.4-2,4.6-3.4c1.2-1.4,2.1-3.1,2.7-5.1c0.6-1.9,0.9-4,0.9-6.2V9.5c0-0.4,0.2-0.8,0.5-1.1c0.3-0.3,0.7-0.5,1.2-0.5h3.4
		c0.4,0,0.9,0.1,1.2,0.4c0.4,0.3,0.6,0.7,0.6,1.1v30.3c0,3.2-0.6,6.1-1.7,8.8c-1.1,2.7-2.7,4.9-4.7,6.8c-2,1.9-4.3,3.4-6.9,4.4
		c-2.6,1.1-5.4,1.6-8.4,1.6c-3,0-5.8-0.6-8.4-1.7s-4.9-2.7-6.9-4.7c-2-2-3.5-4.3-4.7-6.9c-1.1-2.6-1.7-5.4-1.7-8.4V9.5
		c0-0.4,0.1-0.7,0.4-1c0.3-0.3,0.6-0.5,1.1-0.5h3.8c0.4,0,0.7,0.2,1.1,0.5c0.4,0.3,0.6,0.7,0.6,1.1V38.9z"/>
	<path d="M197.2,22.3c0,2-0.4,3.9-1.2,5.7c-0.8,1.8-1.9,3.3-3.3,4.6c1.1,0.6,2.1,1.4,3,2.3c0.9,0.9,1.6,1.9,2.3,3
		c0.6,1.1,1.1,2.2,1.5,3.5c0.3,1.2,0.5,2.5,0.5,3.8c0,2.1-0.4,4-1.1,5.9c-0.8,1.9-1.8,3.5-3.1,4.9c-1.3,1.4-2.9,2.5-4.7,3.4
		c-1.8,0.8-3.8,1.3-5.9,1.3H162c-0.5,0-0.9-0.1-1.2-0.4c-0.3-0.3-0.5-0.6-0.5-1.2V9.7c0-1.1,0.5-1.7,1.6-1.7h20.8
		c2.1,0,4,0.4,5.7,1.1c1.7,0.7,3.3,1.7,4.6,3c1.3,1.3,2.3,2.8,3,4.5C196.8,18.4,197.2,20.2,197.2,22.3z M190.3,22.3
		c0-1.1-0.2-2.1-0.5-3c-0.4-0.9-0.9-1.7-1.6-2.4c-0.7-0.7-1.5-1.2-2.4-1.6c-0.9-0.4-1.9-0.5-3-0.5h-15.6v15.4h15.5
		c1.1,0,2.1-0.2,3-0.6c0.9-0.4,1.7-1,2.4-1.7c0.7-0.7,1.2-1.5,1.6-2.5C190.1,24.4,190.3,23.4,190.3,22.3z M167.1,36.9v16.9H185
		c1.1,0,2.1-0.2,3.1-0.7c1-0.5,1.8-1.1,2.5-1.9c0.7-0.8,1.3-1.7,1.7-2.8c0.4-1.1,0.6-2.2,0.6-3.3c0-1.1-0.2-2.2-0.6-3.2
		c-0.4-1-1-1.9-1.7-2.6c-0.7-0.8-1.5-1.4-2.5-1.8c-1-0.4-2-0.7-3.1-0.7H167.1z"/>
</g>
<g>
	<path d="M20.1,89.6c0-1.9,0.9-2.9,2.8-2.9h38.8c3.6,0,7,0.7,10.1,2c3.2,1.3,5.9,3.2,8.2,5.5c2.3,2.3,4.2,5,5.5,8.2
		c1.3,3.1,2,6.5,2,10.2c0,3.4-0.6,6.5-1.8,9.4c-1.2,2.9-2.9,5.4-5,7.6c1.7,1.2,3.2,2.7,4.6,4.3s2.5,3.3,3.5,5.2
		c1,1.9,1.8,3.8,2.3,5.9c0.5,2.1,0.8,4.2,0.8,6.4c0,3.7-0.7,7.2-2.1,10.5c-1.4,3.3-3.3,6.2-5.6,8.7c-2.4,2.5-5.2,4.5-8.4,6
		c-3.2,1.5-6.7,2.2-10.4,2.2H22.9c-0.8,0-1.5-0.2-2-0.7c-0.5-0.4-0.8-1.1-0.8-2V89.6z M69.7,112.8c0-1.6-0.3-3-0.8-4.4
		s-1.3-2.5-2.3-3.5c-1-1-2.2-1.8-3.6-2.3c-1.4-0.6-2.9-0.8-4.6-0.8H38v22.5h20.1c1.7,0,3.2-0.3,4.6-0.9c1.4-0.6,2.6-1.4,3.6-2.4
		c1-1,1.8-2.2,2.4-3.6C69.4,116,69.7,114.5,69.7,112.8z M73.7,150.9c0-1.4-0.2-2.8-0.7-4.1c-0.5-1.3-1.2-2.6-2-3.6
		c-0.9-1.1-1.9-2-3.1-2.7c-1.2-0.7-2.5-1.2-3.9-1.5c-0.8-0.1-1.7-0.2-2.5-0.3c-0.8-0.1-1.7-0.2-2.6-0.2H38v25.2h20.8
		c0.9,0,1.7,0,2.5-0.1c0.8-0.1,1.7-0.2,2.5-0.3c1.4-0.2,2.7-0.7,3.9-1.4c1.2-0.7,2.2-1.7,3.1-2.8c0.9-1.1,1.6-2.4,2.1-3.8
		C73.5,153.9,73.7,152.4,73.7,150.9z"/>
	<path d="M99.6,176.5c0.2-0.8,0.4-1.6,0.7-2.3c0.3-0.7,0.5-1.3,0.7-1.9L134.5,89c0.1-0.5,0.5-1,1-1.5c0.6-0.6,1.3-0.8,2.3-0.8h10
		c1,0,1.7,0.2,2.1,0.7c0.4,0.5,0.8,0.9,1,1.3l2,4.8l32.8,81.9c0,0.1,0,0.3,0.1,0.7c0.1,0.3,0.1,0.6,0.1,0.8c0,1.2-0.9,1.9-2.7,1.9
		h-12.2c-0.9,0-1.6-0.2-2.1-0.6c-0.5-0.4-0.9-1-1.2-1.7l-1.1-2.9c-0.8-2-1.6-4-2.4-6c-0.8-2-1.6-4-2.3-6h-38.3
		c-1.1,2.9-2.1,5.6-3.1,8.2c-1,2.5-1.9,4.8-2.6,6.7c-0.6,1.5-1.7,2.3-3.2,2.3h-12.4c-0.8,0-1.4-0.1-1.9-0.4
		c-0.5-0.3-0.7-0.7-0.7-1.3C99.6,176.8,99.6,176.6,99.6,176.5z M142.8,110.3c-2.2,5.7-4.5,11.6-6.7,17.7c-2.2,6.1-4.4,12-6.7,17.7
		h26.4L142.8,110.3z"/>
	<path d="M199.1,89.5c0-0.8,0.2-1.4,0.7-2c0.5-0.5,1.1-0.8,2-0.8h14.3c0.6,0,1.1,0.1,1.6,0.4c0.5,0.3,1,0.7,1.4,1.3
		c7.1,10.1,14.1,20.1,21,30.1c6.9,9.9,14,20,21,30.1V89c0.1-0.7,0.4-1.3,0.9-1.7c0.5-0.4,1.1-0.6,1.8-0.6h12c0.8,0,1.5,0.2,2.1,0.7
		c0.6,0.5,0.9,1.2,0.9,2v86.8c0,1.7-1,2.5-2.9,2.5h-13.5c-0.9,0-1.8-0.6-2.5-1.7c-7.3-10.5-14.5-21.1-21.7-31.6
		c-7.2-10.5-14.4-21.1-21.7-31.7V176c0,0.9-0.2,1.6-0.7,2c-0.4,0.5-1.2,0.7-2.2,0.7h-11.9c-1,0-1.6-0.2-2.1-0.7
		c-0.4-0.5-0.7-1.1-0.7-2V89.5z"/>
	<path d="M299,89.4c0-0.7,0.2-1.4,0.7-1.9c0.5-0.5,1.1-0.8,2-0.8h12.6c0.3,0,0.6,0.1,1,0.2c0.4,0.1,0.7,0.3,1,0.6
		c0.3,0.2,0.5,0.5,0.7,0.9c0.2,0.3,0.3,0.7,0.3,1.1v36.8l34.8-37.7c0.8-1.3,1.7-1.9,2.7-1.9h17.7c1.1,0,1.7,0.2,1.7,0.7
		c0,0.3-0.2,0.8-0.7,1.3l-32.8,38.1l38.2,49.4c0.6,0.8,0.9,1.4,0.9,1.8c0,0.5-0.4,0.7-1.3,0.7h-18.9c-1,0-1.9-0.6-2.7-1.9
		l-29.2-37.2l-10.5,10.9V176c0,1.8-1,2.7-3,2.7h-12.6c-1.8,0-2.7-0.9-2.7-2.7V89.4z"/>
</g>
</svg>
