<?xml version="1.0" encoding="utf-8"?>
<!-- Generator: Adobe Illustrator 22.0.0, SVG Export Plug-In . SVG Version: 6.00 Build 0)  -->
<svg version="1.1" id="Layer_1" xmlns="http://www.w3.org/2000/svg" xmlns:xlink="http://www.w3.org/1999/xlink" x="0px" y="0px"
	 viewBox="0 0 323 188.7" style="enable-background:new 0 0 323 188.7;" xml:space="preserve">
<g>
	<path d="M56.8,12.4c0.3,0.2,0.5,0.4,0.6,0.7c0.2,0.2,0.2,0.5,0.2,0.8c0,0.3-0.1,0.6-0.3,0.9l-1.9,3.1c-0.4,0.6-0.8,0.9-1.2,0.9
		c-0.2,0-0.3,0-0.5-0.1c-0.2-0.1-0.4-0.2-0.7-0.4c-1.7-1.2-3.5-2.1-5.4-2.8c-1.9-0.6-3.9-1-5.9-1.1c-3,0-5.9,0.5-8.4,1.6
		c-2.6,1.1-4.8,2.6-6.7,4.4c-1.9,1.9-3.4,4-4.4,6.5c-1.1,2.4-1.6,5-1.6,7.7c0,2.9,0.5,5.5,1.6,8s2.5,4.6,4.4,6.3
		c1.8,1.8,4,3.2,6.4,4.1c2.4,1,5,1.5,7.6,1.5c1,0,1.9-0.1,2.9-0.2c1-0.1,2-0.4,3-0.7c1-0.3,2-0.8,3.1-1.3c1.1-0.5,2.2-1.2,3.5-2
		c0.4-0.3,0.8-0.4,1.1-0.4c0.4,0,0.8,0.3,1.2,0.9l2,3.3c0.2,0.3,0.2,0.6,0.2,0.9c0,0.6-0.3,1-0.9,1.3c-2.2,1.6-4.7,2.9-7.3,3.8
		c-2.7,0.9-5.6,1.4-8.6,1.4c-2.5,0-4.9-0.3-7.2-1s-4.5-1.5-6.5-2.7c-2-1.2-3.8-2.6-5.5-4.2c-1.6-1.6-3-3.5-4.2-5.5
		c-1.2-2-2.1-4.1-2.7-6.5c-0.6-2.3-1-4.7-1-7.2c0-2.5,0.3-4.9,1-7.2c0.6-2.3,1.5-4.5,2.7-6.5c1.2-2,2.6-3.8,4.2-5.5
		c1.6-1.7,3.5-3.1,5.5-4.2c2-1.2,4.2-2.1,6.5-2.7c2.3-0.6,4.7-1,7.2-1c3,0,5.8,0.4,8.4,1.3C51.9,9.5,54.4,10.7,56.8,12.4z"/>
	<path d="M98,53.7c0.4,0,0.8,0.1,1.1,0.4c0.3,0.3,0.5,0.7,0.5,1.2v3.7c0,0.4-0.1,0.8-0.4,1.1c-0.3,0.3-0.7,0.5-1.1,0.5H67.9
		c-1,0-1.6-0.5-1.6-1.6V9.5c0-0.4,0.1-0.8,0.4-1.1C67,8.1,67.4,8,68,8h3.7c0.4,0,0.8,0.1,1.1,0.4C73,8.6,73.2,9,73.2,9.5v44.2H98z"
		/>
	<path d="M113.2,38.9c0,2.2,0.3,4.3,1,6.3c0.6,1.9,1.6,3.6,2.9,5.1s2.8,2.6,4.6,3.4c1.8,0.8,3.9,1.2,6.2,1.2c2.5,0,4.7-0.4,6.6-1.2
		s3.4-2,4.6-3.4c1.2-1.4,2.1-3.1,2.7-5.1c0.6-1.9,0.9-4,0.9-6.2V9.5c0-0.4,0.2-0.8,0.5-1.1c0.3-0.3,0.7-0.5,1.2-0.5h3.4
		c0.4,0,0.9,0.1,1.2,0.4c0.4,0.3,0.6,0.7,0.6,1.1v30.3c0,3.2-0.6,6.1-1.7,8.8c-1.1,2.7-2.7,4.9-4.7,6.8c-2,1.9-4.3,3.4-6.9,4.4
		c-2.6,1.1-5.4,1.6-8.4,1.6c-3,0-5.8-0.6-8.4-1.7s-4.9-2.7-6.9-4.7c-2-2-3.5-4.3-4.7-6.9c-1.1-2.6-1.7-5.4-1.7-8.4V9.5
		c0-0.4,0.1-0.7,0.4-1c0.3-0.3,0.6-0.5,1.1-0.5h3.8c0.4,0,0.7,0.2,1.1,0.5c0.4,0.3,0.6,0.7,0.6,1.1V38.9z"/>
	<path d="M197.2,22.3c0,2-0.4,3.9-1.2,5.7c-0.8,1.8-1.9,3.3-3.3,4.6c1.1,0.6,2.1,1.4,3,2.3c0.9,0.9,1.6,1.9,2.3,3
		c0.6,1.1,1.1,2.2,1.5,3.5c0.3,1.2,0.5,2.5,0.5,3.8c0,2.1-0.4,4-1.1,5.9c-0.8,1.9-1.8,3.5-3.1,4.9c-1.3,1.4-2.9,2.5-4.7,3.4
		c-1.8,0.8-3.8,1.3-5.9,1.3H162c-0.5,0-0.9-0.1-1.2-0.4c-0.3-0.3-0.5-0.6-0.5-1.2V9.7c0-1.1,0.5-1.7,1.6-1.7h20.8
		c2.1,0,4,0.4,5.7,1.1c1.7,0.7,3.3,1.7,4.6,3c1.3,1.3,2.3,2.8,3,4.5C196.8,18.4,197.2,20.2,197.2,22.3z M190.3,22.3
		c0-1.1-0.2-2.1-0.5-3c-0.4-0.9-0.9-1.7-1.6-2.4c-0.7-0.7-1.5-1.2-2.4-1.6c-0.9-0.4-1.9-0.5-3-0.5h-15.6v15.4h15.5
		c1.1,0,2.1-0.2,3-0.6c0.9-0.4,1.7-1,2.4-1.7c0.7-0.7,1.2-1.5,1.6-2.5C190.1,24.4,190.3,23.4,190.3,22.3z M167.1,36.9v16.9H185
		c1.1,0,2.1-0.2,3.1-0.7c1-0.5,1.8-1.1,2.5-1.9c0.7-0.8,1.3-1.7,1.7-2.8c0.4-1.1,0.6-2.2,0.6-3.3c0-1.1-0.2-2.2-0.6-3.2
		c-0.4-1-1-1.9-1.7-2.6c-0.7-0.8-1.5-1.4-2.5-1.8c-1-0.4-2-0.7-3.1-0.7H167.1z"/>
</g>
<g>
	<path d="M47.8,177c-0.4-0.8-0.8-1.7-1.2-2.5c-0.4-0.9-0.8-1.7-1.1-2.5c-5.5-13.8-10.9-27.6-16.3-41.2
		c-5.4-13.7-10.9-27.4-16.4-41.2c0-0.2,0-0.3-0.1-0.5c-0.1-0.2-0.1-0.3-0.1-0.5c0-1.2,0.8-1.9,2.4-1.9h13.5c1.4,0,2.5,0.8,3.1,2.5
		l24,64l23.3-64.6c0.4-1.2,1.3-1.9,2.6-1.9h14.1c1,0,1.7,0.2,2,0.6s0.6,0.8,0.6,1.4v0.9l-12.7,32.9L97.1,153l24.6-64
		c0.6-1.6,1.7-2.4,3.3-2.4h13c1,0,1.7,0.2,2.1,0.6c0.4,0.4,0.6,0.8,0.6,1.4c0,0.2,0,0.4-0.1,0.5v0.2c-5.8,14.6-11.7,29-17.7,43.5
		c-6,14.4-11.9,28.9-17.7,43.5c0,0.1-0.1,0.3-0.3,0.6c-0.1,0.3-0.4,0.6-0.6,0.8c-0.3,0.3-0.6,0.5-1,0.7c-0.4,0.2-0.8,0.3-1.3,0.3
		h-9.7c-1,0-1.7-0.2-2.2-0.7s-0.8-0.9-0.9-1.5c-2.2-5.4-4.3-10.7-6.4-16c-2.1-5.3-4.3-10.6-6.5-16l-12,30c-0.2,0.5-0.4,0.9-0.6,1.4
		c-0.2,0.5-0.5,0.9-0.8,1.3c-0.3,0.4-0.7,0.7-1.1,1c-0.4,0.2-0.8,0.4-1.3,0.4h-9.7c-0.7,0-1.4-0.2-1.8-0.6
		C48.3,177.8,48,177.4,47.8,177z"/>
	<path d="M153.1,89.6c0-2,0.9-3,2.7-3h59.8c1.1,0,1.8,0.3,2.3,0.9c0.5,0.6,0.7,1.4,0.7,2.3v11c0,0.7-0.3,1.4-0.8,2
		c-0.5,0.6-1.3,0.9-2.3,0.9h-44.1v18.8h34c0.8-0.1,1.5,0.1,2,0.5c0.5,0.4,0.7,1.2,0.7,2.2v11.2c0,0.7-0.2,1.4-0.6,2
		c-0.4,0.6-1.1,0.9-2,0.9h-34.1v22.5h45.7c1.2,0,1.9,0.2,2.3,0.7c0.4,0.5,0.6,1.3,0.6,2.3v11.3c0,1.7-0.9,2.6-2.7,2.6h-61.4
		c-0.7,0-1.4-0.2-1.9-0.6c-0.5-0.4-0.8-1.1-0.8-2V89.6z"/>
	<path d="M234.7,89.6c0-1.9,0.9-2.9,2.8-2.9h38.8c3.6,0,7,0.7,10.1,2c3.2,1.3,5.9,3.2,8.2,5.5c2.3,2.3,4.2,5,5.5,8.2
		c1.3,3.1,2,6.5,2,10.2c0,3.4-0.6,6.5-1.8,9.4c-1.2,2.9-2.9,5.4-5,7.6c1.7,1.2,3.2,2.7,4.6,4.3s2.5,3.3,3.5,5.2
		c1,1.9,1.8,3.8,2.3,5.9c0.5,2.1,0.8,4.2,0.8,6.4c0,3.7-0.7,7.2-2.1,10.5c-1.4,3.3-3.3,6.2-5.6,8.7c-2.4,2.5-5.2,4.5-8.4,6
		c-3.2,1.5-6.7,2.2-10.4,2.2h-42.7c-0.8,0-1.5-0.2-2-0.7c-0.5-0.4-0.8-1.1-0.8-2V89.6z M284.3,112.8c0-1.6-0.3-3-0.8-4.4
		s-1.3-2.5-2.3-3.5c-1-1-2.2-1.8-3.6-2.3s-2.9-0.8-4.6-0.8h-20.3v22.5h20.1c1.7,0,3.2-0.3,4.6-0.9c1.4-0.6,2.6-1.4,3.6-2.4
		c1-1,1.8-2.2,2.4-3.6C284,116,284.3,114.5,284.3,112.8z M288.3,150.9c0-1.4-0.2-2.8-0.7-4.1c-0.5-1.3-1.2-2.6-2-3.6
		c-0.9-1.1-1.9-2-3.1-2.7c-1.2-0.7-2.5-1.2-3.9-1.5c-0.8-0.1-1.7-0.2-2.5-0.3c-0.8-0.1-1.7-0.2-2.6-0.2h-20.8v25.2h20.8
		c0.9,0,1.7,0,2.5-0.1c0.8-0.1,1.7-0.2,2.5-0.3c1.4-0.2,2.7-0.7,3.9-1.4c1.2-0.7,2.2-1.7,3.1-2.8c0.9-1.1,1.6-2.4,2.1-3.8
		C288.1,153.9,288.3,152.4,288.3,150.9z"/>
</g>
</svg>
