<?xml version="1.0" encoding="utf-8"?>
<!-- Generator: Adobe Illustrator 22.0.0, SVG Export Plug-In . SVG Version: 6.00 Build 0)  -->
<svg version="1.1" id="Layer_1" xmlns="http://www.w3.org/2000/svg" xmlns:xlink="http://www.w3.org/1999/xlink" x="0px" y="0px"
	 viewBox="0 0 364.3 188.7" style="enable-background:new 0 0 364.3 188.7;" xml:space="preserve">
<g>
	<path d="M56.8,12.4c0.3,0.2,0.5,0.4,0.6,0.7c0.2,0.2,0.2,0.5,0.2,0.8c0,0.3-0.1,0.6-0.3,0.9l-1.9,3.1c-0.4,0.6-0.8,0.9-1.2,0.9
		c-0.2,0-0.3,0-0.5-0.1c-0.2-0.1-0.4-0.2-0.7-0.4c-1.7-1.2-3.5-2.1-5.4-2.8c-1.9-0.6-3.9-1-5.9-1.1c-3,0-5.9,0.5-8.4,1.6
		c-2.6,1.1-4.8,2.6-6.7,4.4c-1.9,1.9-3.4,4-4.4,6.5c-1.1,2.4-1.6,5-1.6,7.7c0,2.9,0.5,5.5,1.6,8s2.5,4.6,4.4,6.3
		c1.8,1.8,4,3.2,6.4,4.1c2.4,1,5,1.5,7.6,1.5c1,0,1.9-0.1,2.9-0.2c1-0.1,2-0.4,3-0.7c1-0.3,2-0.8,3.1-1.3c1.1-0.5,2.2-1.2,3.5-2
		c0.4-0.3,0.8-0.4,1.1-0.4c0.4,0,0.8,0.3,1.2,0.9l2,3.3c0.2,0.3,0.2,0.6,0.2,0.9c0,0.6-0.3,1-0.9,1.3c-2.2,1.6-4.7,2.9-7.3,3.8
		c-2.7,0.9-5.6,1.4-8.6,1.4c-2.5,0-4.9-0.3-7.2-1s-4.5-1.5-6.5-2.7c-2-1.2-3.8-2.6-5.5-4.2c-1.6-1.6-3-3.5-4.2-5.5
		c-1.2-2-2.1-4.1-2.7-6.5c-0.6-2.3-1-4.7-1-7.2c0-2.5,0.3-4.9,1-7.2c0.6-2.3,1.5-4.5,2.7-6.5c1.2-2,2.6-3.8,4.2-5.5
		c1.6-1.7,3.5-3.1,5.5-4.2c2-1.2,4.2-2.1,6.5-2.7c2.3-0.6,4.7-1,7.2-1c3,0,5.8,0.4,8.4,1.3C51.9,9.5,54.4,10.7,56.8,12.4z"/>
	<path d="M98,53.7c0.4,0,0.8,0.1,1.1,0.4c0.3,0.3,0.5,0.7,0.5,1.2v3.7c0,0.4-0.1,0.8-0.4,1.1c-0.3,0.3-0.7,0.5-1.1,0.5H67.9
		c-1,0-1.6-0.5-1.6-1.6V9.5c0-0.4,0.1-0.8,0.4-1.1C67,8.1,67.4,8,68,8h3.7c0.4,0,0.8,0.1,1.1,0.4C73,8.6,73.2,9,73.2,9.5v44.2H98z"
		/>
	<path d="M113.2,38.9c0,2.2,0.3,4.3,1,6.3c0.6,1.9,1.6,3.6,2.9,5.1s2.8,2.6,4.6,3.4c1.8,0.8,3.9,1.2,6.2,1.2c2.5,0,4.7-0.4,6.6-1.2
		s3.4-2,4.6-3.4c1.2-1.4,2.1-3.1,2.7-5.1c0.6-1.9,0.9-4,0.9-6.2V9.5c0-0.4,0.2-0.8,0.5-1.1c0.3-0.3,0.7-0.5,1.2-0.5h3.4
		c0.4,0,0.9,0.1,1.2,0.4c0.4,0.3,0.6,0.7,0.6,1.1v30.3c0,3.2-0.6,6.1-1.7,8.8c-1.1,2.7-2.7,4.9-4.7,6.8c-2,1.9-4.3,3.4-6.9,4.4
		c-2.6,1.1-5.4,1.6-8.4,1.6c-3,0-5.8-0.6-8.4-1.7s-4.9-2.7-6.9-4.7c-2-2-3.5-4.3-4.7-6.9c-1.1-2.6-1.7-5.4-1.7-8.4V9.5
		c0-0.4,0.1-0.7,0.4-1c0.3-0.3,0.6-0.5,1.1-0.5h3.8c0.4,0,0.7,0.2,1.1,0.5c0.4,0.3,0.6,0.7,0.6,1.1V38.9z"/>
	<path d="M197.2,22.3c0,2-0.4,3.9-1.2,5.7c-0.8,1.8-1.9,3.3-3.3,4.6c1.1,0.6,2.1,1.4,3,2.3c0.9,0.9,1.6,1.9,2.3,3
		c0.6,1.1,1.1,2.2,1.5,3.5c0.3,1.2,0.5,2.5,0.5,3.8c0,2.1-0.4,4-1.1,5.9c-0.8,1.9-1.8,3.5-3.1,4.9c-1.3,1.4-2.9,2.5-4.7,3.4
		c-1.8,0.8-3.8,1.3-5.9,1.3H162c-0.5,0-0.9-0.1-1.2-0.4c-0.3-0.3-0.5-0.6-0.5-1.2V9.7c0-1.1,0.5-1.7,1.6-1.7h20.8
		c2.1,0,4,0.4,5.7,1.1c1.7,0.7,3.3,1.7,4.6,3c1.3,1.3,2.3,2.8,3,4.5C196.8,18.4,197.2,20.2,197.2,22.3z M190.3,22.3
		c0-1.1-0.2-2.1-0.5-3c-0.4-0.9-0.9-1.7-1.6-2.4c-0.7-0.7-1.5-1.2-2.4-1.6c-0.9-0.4-1.9-0.5-3-0.5h-15.6v15.4h15.5
		c1.1,0,2.1-0.2,3-0.6c0.9-0.4,1.7-1,2.4-1.7c0.7-0.7,1.2-1.5,1.6-2.5C190.1,24.4,190.3,23.4,190.3,22.3z M167.1,36.9v16.9H185
		c1.1,0,2.1-0.2,3.1-0.7c1-0.5,1.8-1.1,2.5-1.9c0.7-0.8,1.3-1.7,1.7-2.8c0.4-1.1,0.6-2.2,0.6-3.3c0-1.1-0.2-2.2-0.6-3.2
		c-0.4-1-1-1.9-1.7-2.6c-0.7-0.8-1.5-1.4-2.5-1.8c-1-0.4-2-0.7-3.1-0.7H167.1z"/>
</g>
<g>
	<path d="M13.8,176.5c0.2-0.8,0.4-1.6,0.7-2.3c0.3-0.7,0.5-1.3,0.7-1.9L48.7,89c0.1-0.5,0.5-1,1-1.5c0.6-0.6,1.3-0.8,2.3-0.8h10
		c1,0,1.7,0.2,2.1,0.7c0.4,0.5,0.8,0.9,1,1.3l2,4.8l32.8,81.9c0,0.1,0,0.3,0.1,0.7c0.1,0.3,0.1,0.6,0.1,0.8c0,1.2-0.9,1.9-2.7,1.9
		H85.1c-0.9,0-1.6-0.2-2.1-0.6c-0.5-0.4-0.9-1-1.2-1.7l-1.1-2.9c-0.8-2-1.6-4-2.4-6c-0.8-2-1.6-4-2.3-6H37.7
		c-1.1,2.9-2.1,5.6-3.1,8.2c-1,2.5-1.9,4.8-2.6,6.7c-0.6,1.5-1.7,2.3-3.2,2.3H16.4c-0.8,0-1.4-0.1-1.9-0.4c-0.5-0.3-0.7-0.7-0.7-1.3
		C13.8,176.8,13.8,176.6,13.8,176.5z M57,110.3c-2.2,5.7-4.5,11.6-6.7,17.7c-2.2,6.1-4.4,12-6.7,17.7h26.4L57,110.3z"/>
	<path d="M182.6,93.4c0.5,0.3,0.9,0.6,1.2,1.1c0.3,0.4,0.5,0.9,0.5,1.5c0,0.5-0.1,0.9-0.4,1.4l-6,10.2c-0.7,1-1.4,1.4-2.2,1.4
		c-0.2,0-0.5-0.1-0.9-0.2c-0.3-0.1-0.7-0.3-1-0.5c-2.6-1.9-5.4-3.3-8.4-4.3c-3-1-6.1-1.6-9.5-1.6c-4.2,0-8.1,0.8-11.6,2.4
		c-3.5,1.6-6.6,3.8-9.1,6.5c-2.6,2.7-4.6,5.9-6,9.6c-1.4,3.7-2.1,7.6-2.1,11.8c0,4.2,0.7,8.1,2.1,11.8c1.4,3.7,3.4,6.9,6,9.6
		c2.6,2.7,5.6,4.9,9.1,6.5c3.5,1.6,7.4,2.4,11.6,2.4c3.4,0,6.5-0.5,9.6-1.6c3-1,5.8-2.5,8.4-4.3c0.3-0.2,0.7-0.4,1-0.5
		c0.4-0.1,0.7-0.1,0.9-0.2c0.7,0,1.4,0.5,2.2,1.4l6.1,10.4c0.2,0.5,0.4,1,0.4,1.4c0,0.6-0.2,1.1-0.5,1.4c-0.4,0.4-0.8,0.7-1.2,1.1
		c-3.9,2.6-8.1,4.6-12.6,6c-4.5,1.4-9.2,2.1-14.2,2.1c-4.4,0-8.6-0.6-12.6-1.7s-7.8-2.7-11.3-4.8c-3.5-2.1-6.7-4.5-9.6-7.4
		c-2.9-2.9-5.3-6.1-7.4-9.6c-2.1-3.5-3.7-7.3-4.8-11.3c-1.1-4-1.7-8.2-1.7-12.6c0-4.4,0.6-8.6,1.7-12.6s2.7-7.8,4.8-11.4
		c2.1-3.5,4.5-6.8,7.4-9.6c2.9-2.9,6.1-5.4,9.6-7.4c3.5-2,7.3-3.6,11.3-4.8c4-1.1,8.2-1.7,12.6-1.7c4.9,0,9.6,0.7,14,2.1
		C174.5,88.8,178.7,90.8,182.6,93.4z"/>
	<path d="M201.1,89.6c0-2,0.9-3,2.7-3h59.8c1.1,0,1.8,0.3,2.3,0.9c0.5,0.6,0.7,1.4,0.7,2.3v11c0,0.7-0.3,1.4-0.8,2
		c-0.5,0.6-1.3,0.9-2.3,0.9h-44.1v18.8h34c0.8-0.1,1.5,0.1,2,0.5c0.5,0.4,0.7,1.2,0.7,2.2v11.2c0,0.7-0.2,1.4-0.6,2
		c-0.4,0.6-1.1,0.9-2,0.9h-34.1v22.5h45.7c1.2,0,1.9,0.2,2.3,0.7c0.4,0.5,0.6,1.3,0.6,2.3v11.3c0,1.7-0.9,2.6-2.7,2.6h-61.4
		c-0.7,0-1.4-0.2-1.9-0.6c-0.5-0.4-0.8-1.1-0.8-2V89.6z"/>
	<path d="M335.2,111.2c-0.5,0-1-0.1-1.5-0.4c-0.5-0.3-1-0.6-1.6-1.1l-0.1-0.1c-0.8-0.8-1.8-1.7-3-2.6c-1.2-1-2.6-1.8-4.2-2.7
		c-1.5-0.8-3.2-1.5-4.9-2.1c-1.8-0.6-3.5-0.9-5.4-0.9c-2.3,0-4.4,0.3-6.1,0.8c-1.8,0.5-3.3,1.2-4.5,2.1c-1.2,0.9-2.1,1.9-2.7,3.1
		c-0.6,1.2-0.9,2.5-0.9,3.8c0,1.5,0.5,2.8,1.4,3.9c0.9,1.1,2.2,2.1,3.8,3c1.6,0.9,3.4,1.7,5.5,2.4c2.1,0.7,4.2,1.4,6.5,2.1
		c2.6,0.8,5.2,1.6,7.8,2.5c2.6,0.9,5,1.9,7.4,3.1c2.3,1.1,4.5,2.4,6.5,3.8c2,1.4,3.8,3,5.2,4.8c1.5,1.8,2.6,3.8,3.5,6
		c0.8,2.2,1.3,4.7,1.3,7.5c0,4.5-0.9,8.6-2.7,12.2c-1.8,3.6-4.3,6.8-7.5,9.3c-3.2,2.6-7,4.6-11.3,6c-4.3,1.4-9,2.1-13.9,2.1
		c-3.2,0-6.3-0.4-9.5-1.1c-3.1-0.7-6.2-1.8-9.1-3.2c-2.9-1.4-5.6-3-8.2-4.9c-2.6-1.9-4.9-4.1-6.9-6.5v0.1l-0.1-0.2
		c-0.9-1-1.4-2-1.4-2.9c0-0.5,0.1-0.9,0.4-1.3c0.2-0.4,0.6-0.9,1.1-1.4l2-2c0.6-0.5,1.3-1.1,2-1.8c0.7-0.7,1.4-1.3,2.1-1.8
		c0.7-0.5,1.4-1,2-1.4c0.6-0.4,1.1-0.6,1.5-0.6c0.6,0,1.1,0.2,1.6,0.6c0.5,0.4,0.9,0.7,1.2,1.1l0.2,0.2h-0.1
		c1.4,1.4,3.1,2.7,4.9,3.9c1.8,1.2,3.6,2.3,5.6,3.3c1.9,1,3.8,1.7,5.7,2.3c1.9,0.6,3.6,0.8,5.3,0.8c2.3,0,4.4-0.3,6.4-0.9
		c2-0.6,3.7-1.4,5.1-2.5c1.4-1.1,2.6-2.3,3.4-3.8c0.8-1.5,1.2-3.1,1.2-5c0-1.8-0.5-3.4-1.6-4.7c-1.1-1.3-2.5-2.4-4.2-3.4
		c-1.7-1-3.7-1.8-5.9-2.5c-2.2-0.7-4.4-1.4-6.5-2c-5-1.5-9.5-3.2-13.2-5c-3.8-1.8-6.9-3.8-9.5-6c-2.5-2.2-4.4-4.7-5.7-7.4
		c-1.3-2.7-1.9-5.8-1.9-9.3c0-3.8,0.8-7.4,2.3-10.5c1.6-3.2,3.8-5.9,6.6-8.1c2.9-2.3,6.3-4,10.3-5.3c4-1.3,8.5-1.9,13.5-1.9
		c3.8,0,7.6,0.6,11.5,1.8c3.9,1.2,7.5,2.8,10.8,4.9c1,0.6,2,1.3,3,2.1c1,0.8,2,1.6,2.9,2.4c0.9,0.8,1.6,1.6,2.1,2.4
		c0.6,0.8,0.8,1.4,0.8,2c0,0.5-0.1,1-0.4,1.5c-0.2,0.5-0.6,1-0.9,1.4l-1.9,2v-0.1c-0.6,0.7-1.3,1.3-1.9,2c-0.7,0.7-1.3,1.3-2,1.9
		c-0.7,0.6-1.3,1-1.8,1.4C336.1,111,335.6,111.2,335.2,111.2z"/>
</g>
</svg>
