<?xml version="1.0" encoding="utf-8"?>
<!-- Generator: Adobe Illustrator 22.0.0, SVG Export Plug-In . SVG Version: 6.00 Build 0)  -->
<svg version="1.1" id="Layer_1" xmlns="http://www.w3.org/2000/svg" xmlns:xlink="http://www.w3.org/1999/xlink" x="0px" y="0px"
	 viewBox="0 0 287.7 188.7" style="enable-background:new 0 0 287.7 188.7;" xml:space="preserve">
<g>
	<path d="M56.8,12.4c0.3,0.2,0.5,0.4,0.6,0.7c0.2,0.2,0.2,0.5,0.2,0.8c0,0.3-0.1,0.6-0.3,0.9l-1.9,3.1c-0.4,0.6-0.8,0.9-1.2,0.9
		c-0.2,0-0.3,0-0.5-0.1c-0.2-0.1-0.4-0.2-0.7-0.4c-1.7-1.2-3.5-2.1-5.4-2.8c-1.9-0.6-3.9-1-5.9-1.1c-3,0-5.9,0.5-8.4,1.6
		c-2.6,1.1-4.8,2.6-6.7,4.4c-1.9,1.9-3.4,4-4.4,6.5c-1.1,2.4-1.6,5-1.6,7.7c0,2.9,0.5,5.5,1.6,8s2.5,4.6,4.4,6.3
		c1.8,1.8,4,3.2,6.4,4.1c2.4,1,5,1.5,7.6,1.5c1,0,1.9-0.1,2.9-0.2c1-0.1,2-0.4,3-0.7c1-0.3,2-0.8,3.1-1.3c1.1-0.5,2.2-1.2,3.5-2
		c0.4-0.3,0.8-0.4,1.1-0.4c0.4,0,0.8,0.3,1.2,0.9l2,3.3c0.2,0.3,0.2,0.6,0.2,0.9c0,0.6-0.3,1-0.9,1.3c-2.2,1.6-4.7,2.9-7.3,3.8
		c-2.7,0.9-5.6,1.4-8.6,1.4c-2.5,0-4.9-0.3-7.2-1s-4.5-1.5-6.5-2.7c-2-1.2-3.8-2.6-5.5-4.2c-1.6-1.6-3-3.5-4.2-5.5
		c-1.2-2-2.1-4.1-2.7-6.5c-0.6-2.3-1-4.7-1-7.2c0-2.5,0.3-4.9,1-7.2c0.6-2.3,1.5-4.5,2.7-6.5c1.2-2,2.6-3.8,4.2-5.5
		c1.6-1.7,3.5-3.1,5.5-4.2c2-1.2,4.2-2.1,6.5-2.7c2.3-0.6,4.7-1,7.2-1c3,0,5.8,0.4,8.4,1.3C51.9,9.5,54.4,10.7,56.8,12.4z"/>
	<path d="M98,53.7c0.4,0,0.8,0.1,1.1,0.4c0.3,0.3,0.5,0.7,0.5,1.2v3.7c0,0.4-0.1,0.8-0.4,1.1c-0.3,0.3-0.7,0.5-1.1,0.5H67.9
		c-1,0-1.6-0.5-1.6-1.6V9.5c0-0.4,0.1-0.8,0.4-1.1C67,8.1,67.4,8,68,8h3.7c0.4,0,0.8,0.1,1.1,0.4C73,8.6,73.2,9,73.2,9.5v44.2H98z"
		/>
	<path d="M113.2,38.9c0,2.2,0.3,4.3,1,6.3c0.6,1.9,1.6,3.6,2.9,5.1s2.8,2.6,4.6,3.4c1.8,0.8,3.9,1.2,6.2,1.2c2.5,0,4.7-0.4,6.6-1.2
		s3.4-2,4.6-3.4c1.2-1.4,2.1-3.1,2.7-5.1c0.6-1.9,0.9-4,0.9-6.2V9.5c0-0.4,0.2-0.8,0.5-1.1c0.3-0.3,0.7-0.5,1.2-0.5h3.4
		c0.4,0,0.9,0.1,1.2,0.4c0.4,0.3,0.6,0.7,0.6,1.1v30.3c0,3.2-0.6,6.1-1.7,8.8c-1.1,2.7-2.7,4.9-4.7,6.8c-2,1.9-4.3,3.4-6.9,4.4
		c-2.6,1.1-5.4,1.6-8.4,1.6c-3,0-5.8-0.6-8.4-1.7s-4.9-2.7-6.9-4.7c-2-2-3.5-4.3-4.7-6.9c-1.1-2.6-1.7-5.4-1.7-8.4V9.5
		c0-0.4,0.1-0.7,0.4-1c0.3-0.3,0.6-0.5,1.1-0.5h3.8c0.4,0,0.7,0.2,1.1,0.5c0.4,0.3,0.6,0.7,0.6,1.1V38.9z"/>
	<path d="M197.2,22.3c0,2-0.4,3.9-1.2,5.7c-0.8,1.8-1.9,3.3-3.3,4.6c1.1,0.6,2.1,1.4,3,2.3c0.9,0.9,1.6,1.9,2.3,3
		c0.6,1.1,1.1,2.2,1.5,3.5c0.3,1.2,0.5,2.5,0.5,3.8c0,2.1-0.4,4-1.1,5.9c-0.8,1.9-1.8,3.5-3.1,4.9c-1.3,1.4-2.9,2.5-4.7,3.4
		c-1.8,0.8-3.8,1.3-5.9,1.3H162c-0.5,0-0.9-0.1-1.2-0.4c-0.3-0.3-0.5-0.6-0.5-1.2V9.7c0-1.1,0.5-1.7,1.6-1.7h20.8
		c2.1,0,4,0.4,5.7,1.1c1.7,0.7,3.3,1.7,4.6,3c1.3,1.3,2.3,2.8,3,4.5C196.8,18.4,197.2,20.2,197.2,22.3z M190.3,22.3
		c0-1.1-0.2-2.1-0.5-3c-0.4-0.9-0.9-1.7-1.6-2.4c-0.7-0.7-1.5-1.2-2.4-1.6c-0.9-0.4-1.9-0.5-3-0.5h-15.6v15.4h15.5
		c1.1,0,2.1-0.2,3-0.6c0.9-0.4,1.7-1,2.4-1.7c0.7-0.7,1.2-1.5,1.6-2.5C190.1,24.4,190.3,23.4,190.3,22.3z M167.1,36.9v16.9H185
		c1.1,0,2.1-0.2,3.1-0.7c1-0.5,1.8-1.1,2.5-1.9c0.7-0.8,1.3-1.7,1.7-2.8c0.4-1.1,0.6-2.2,0.6-3.3c0-1.1-0.2-2.2-0.6-3.2
		c-0.4-1-1-1.9-1.7-2.6c-0.7-0.8-1.5-1.4-2.5-1.8c-1-0.4-2-0.7-3.1-0.7H167.1z"/>
</g>
<g>
	<path d="M20.3,89.4c0-0.7,0.2-1.4,0.7-1.9c0.5-0.5,1.2-0.8,2.1-0.8h12.3c0.7,0,1.4,0.2,1.9,0.7c0.6,0.5,0.8,1.1,0.8,2v72.4h38.8
		c0.7,0,1.4,0.3,1.9,0.8c0.5,0.5,0.8,1.2,0.8,2.1V176c0,0.7-0.2,1.4-0.7,2c-0.5,0.6-1.2,0.8-2,0.8H23c-1.8,0-2.7-0.9-2.7-2.7V89.4z"
		/>
	<path d="M88.7,132.8c0-4.3,0.6-8.5,1.7-12.6c1.1-4.1,2.7-7.8,4.8-11.4c2.1-3.5,4.5-6.7,7.4-9.6c2.9-2.9,6.1-5.4,9.6-7.4
		c3.5-2,7.3-3.6,11.3-4.8c4-1.1,8.2-1.7,12.6-1.7c4.3,0,8.5,0.6,12.6,1.7c4,1.1,7.8,2.7,11.3,4.8c3.5,2,6.7,4.5,9.6,7.4
		c2.9,2.9,5.4,6.1,7.4,9.6c2,3.5,3.6,7.3,4.8,11.4c1.1,4.1,1.7,8.3,1.7,12.7c0,4.4-0.6,8.6-1.7,12.6c-1.1,4-2.7,7.8-4.8,11.3
		c-2,3.5-4.5,6.7-7.4,9.6c-2.9,2.9-6.1,5.3-9.6,7.4c-3.5,2-7.3,3.6-11.3,4.7s-8.2,1.7-12.6,1.7c-4.4,0-8.6-0.6-12.6-1.7
		s-7.8-2.7-11.3-4.8c-3.5-2.1-6.7-4.5-9.6-7.4c-2.9-2.9-5.3-6.1-7.4-9.6c-2-3.5-3.6-7.3-4.7-11.3C89.2,141.4,88.7,137.2,88.7,132.8z
		 M106.6,132.7c0,4.2,0.8,8.1,2.3,11.7c1.5,3.6,3.6,6.8,6.2,9.5c2.6,2.7,5.7,4.8,9.3,6.4c3.6,1.6,7.5,2.4,11.6,2.4
		c4.1,0,8-0.8,11.6-2.4c3.6-1.6,6.7-3.7,9.3-6.4c2.6-2.7,4.7-5.9,6.2-9.5c1.5-3.6,2.3-7.5,2.3-11.7c0-4.1-0.8-8-2.3-11.7
		c-1.5-3.6-3.6-6.8-6.2-9.5c-2.6-2.7-5.8-4.8-9.3-6.4c-3.6-1.6-7.4-2.4-11.6-2.4c-4.2,0-8.1,0.8-11.6,2.4c-3.6,1.6-6.7,3.7-9.3,6.4
		c-2.6,2.7-4.7,5.9-6.2,9.5C107.3,124.7,106.6,128.6,106.6,132.7z"/>
	<path d="M269,93.4c0.5,0.3,0.9,0.6,1.2,1.1c0.3,0.4,0.5,0.9,0.5,1.5c0,0.5-0.1,0.9-0.4,1.4l-6,10.2c-0.7,1-1.4,1.4-2.2,1.4
		c-0.2,0-0.5-0.1-0.9-0.2c-0.3-0.1-0.7-0.3-1-0.5c-2.6-1.9-5.4-3.3-8.4-4.3c-3-1-6.1-1.6-9.5-1.6c-4.2,0-8.1,0.8-11.6,2.4
		c-3.5,1.6-6.6,3.8-9.1,6.5c-2.6,2.7-4.6,5.9-6,9.6c-1.4,3.7-2.1,7.6-2.1,11.8c0,4.2,0.7,8.1,2.1,11.8c1.4,3.7,3.4,6.9,6,9.6
		c2.6,2.7,5.6,4.9,9.1,6.5c3.5,1.6,7.4,2.4,11.6,2.4c3.4,0,6.5-0.5,9.6-1.6c3-1,5.8-2.5,8.4-4.3c0.3-0.2,0.7-0.4,1-0.5
		c0.4-0.1,0.7-0.1,0.9-0.2c0.7,0,1.4,0.5,2.2,1.4l6.1,10.4c0.2,0.5,0.4,1,0.4,1.4c0,0.6-0.2,1.1-0.5,1.4c-0.4,0.4-0.8,0.7-1.2,1.1
		c-3.9,2.6-8.1,4.6-12.6,6c-4.5,1.4-9.2,2.1-14.2,2.1c-4.4,0-8.6-0.6-12.6-1.7s-7.8-2.7-11.3-4.8c-3.5-2.1-6.7-4.5-9.6-7.4
		c-2.9-2.9-5.3-6.1-7.4-9.6c-2.1-3.5-3.7-7.3-4.8-11.3c-1.1-4-1.7-8.2-1.7-12.6c0-4.4,0.6-8.6,1.7-12.6s2.7-7.8,4.8-11.4
		c2.1-3.5,4.5-6.8,7.4-9.6c2.9-2.9,6.1-5.4,9.6-7.4c3.5-2,7.3-3.6,11.3-4.8c4-1.1,8.2-1.7,12.6-1.7c4.9,0,9.6,0.7,14,2.1
		C260.9,88.8,265.1,90.8,269,93.4z"/>
</g>
</svg>
